<svg width="34" height="43" viewBox="0 0 34 41"  xmlns="http://www.w3.org/2000/svg">
<path d="M33.1719 13.1934C33.1719 12.8501 33.0409 12.5197 32.8056 12.2697L22.0243 0.814598C21.7696 0.544078 21.4146 0.390625 21.043 0.390625H7.56641C7.18152 0.390625 6.81495 0.555218 6.55917 0.842898L1.16854 6.90735C0.949324 7.15406 0.828125 7.47265 0.828125 7.80273V31.5664C0.828125 32.6009 1.21868 33.5459 1.86007 34.2617C1.21868 34.9775 0.828125 35.9226 0.828125 36.957C0.828125 39.1863 2.6418 41 4.87109 41H29.1289C31.3582 41 33.1719 39.1863 33.1719 36.957C33.1719 35.9226 32.7813 34.9775 32.1399 34.2617C32.7814 33.5459 33.1719 32.6009 33.1719 31.5664V13.1934ZM17 32.9137C14.7707 32.9137 12.957 31.1 12.957 28.8707C12.957 28.3157 13.1156 27.3044 14.4866 24.941C15.1791 23.7471 15.8624 22.7558 15.8911 22.7142C16.1428 22.35 16.5573 22.1325 17 22.1325C17.4428 22.1325 17.8572 22.3499 18.1089 22.7142C18.1376 22.7558 18.8209 23.7471 19.5134 24.941C20.8844 27.3045 21.043 28.3157 21.043 28.8707C21.043 31.1 19.2293 32.9137 17 32.9137ZM26.9347 17.0143C26.4135 17.5052 25.7502 17.7474 25.0869 17.7474C24.3697 17.7474 23.655 17.4631 23.1246 16.8998L16.9351 10.3234C15.9139 9.23898 15.9665 7.53329 17.0496 6.51339C18.1354 5.49339 19.8423 5.54478 20.8596 6.62785L27.0491 13.2042C28.0704 14.2887 28.0177 15.9943 26.9347 17.0143Z" />
<path d="M15.6523 28.8724C15.6523 29.614 16.2569 30.2186 17 30.2186C17.7427 30.2186 18.347 29.6145 18.3477 28.872C18.3362 28.4585 17.776 27.2846 17.0003 25.978C16.2239 27.286 15.6633 28.4604 15.6523 28.8724Z" />
</svg>
